<?xml version="1.0" encoding="UTF-8" standalone="no"?>
<!-- Created with Inkscape (http://www.inkscape.org/) -->

<svg
   width="207.6483mm"
   height="205.13136mm"
   viewBox="0 0 207.6483 205.13136"
   version="1.1"
   id="svg1"
   inkscape:version="1.3.2 (091e20e, 2023-11-25)"
   sodipodi:docname="favicon.svg"
   xml:space="preserve"
   inkscape:export-filename="favicon.png"
   inkscape:export-xdpi="96"
   inkscape:export-ydpi="96"
   xmlns:inkscape="http://www.inkscape.org/namespaces/inkscape"
   xmlns:sodipodi="http://sodipodi.sourceforge.net/DTD/sodipodi-0.dtd"
   xmlns="http://www.w3.org/2000/svg"
   xmlns:svg="http://www.w3.org/2000/svg"><sodipodi:namedview
     id="namedview1"
     pagecolor="#ffffff"
     bordercolor="#cccccc"
     borderopacity="1"
     inkscape:showpageshadow="0"
     inkscape:pageopacity="1"
     inkscape:pagecheckerboard="0"
     inkscape:deskcolor="#d1d1d1"
     inkscape:document-units="mm"
     inkscape:zoom="0.5946522"
     inkscape:cx="496.92913"
     inkscape:cy="183.30042"
     inkscape:window-width="2560"
     inkscape:window-height="1465"
     inkscape:window-x="0"
     inkscape:window-y="25"
     inkscape:window-maximized="1"
     inkscape:current-layer="layer1"
     inkscape:clip-to-page="false" /><defs
     id="defs1"><rect
       x="808.87616"
       y="79.037796"
       width="188.34538"
       height="149.66731"
       id="rect4" /></defs><g
     inkscape:label="Layer 1"
     inkscape:groupmode="layer"
     id="layer1"
     transform="translate(-1.258478,-2.5169501)"><rect
       style="fill:#008080;stroke-width:0.281758"
       id="rect1"
       width="207.6483"
       height="205.13136"
       x="1.258478"
       y="2.5169501" /><rect
       style="fill:#008080;stroke-width:0.264583"
       id="rect2"
       width="36.495762"
       height="30.203388"
       x="37.754234"
       y="32.720337" /><path
       style="fill:#2e529d;fill-opacity:1;stroke-width:0.444939"
       d="M 1.4046043,104.92902 V 2.5932884 H 105.07515 208.74569 V 104.92902 207.26474 H 105.07515 1.4046043 Z"
       id="path2" /><text
       xml:space="preserve"
       style="font-size:3.175px;fill:#2e529d;fill-opacity:1;stroke-width:0.264583"
       x="54.574692"
       y="88.911255"
       id="text2"><tspan
         sodipodi:role="line"
         id="tspan2"
         style="stroke-width:0.264583"
         x="54.574692"
         y="88.911255">S</tspan></text><text
       xml:space="preserve"
       style="font-size:3.175px;fill:#2e529d;fill-opacity:1;stroke-width:0.264583"
       x="115.97614"
       y="113.82777"
       id="text3"><tspan
         sodipodi:role="line"
         id="tspan3"
         style="stroke-width:0.264583"
         x="115.97614"
         y="113.82777">S</tspan></text><text
       xml:space="preserve"
       transform="matrix(0,14.921965,-14.921965,0,1423.9737,-12045.572)"
       id="text4"
       style="font-size:16px;white-space:pre;shape-inside:url(#rect4);display:inline;fill:#c9352e;fill-opacity:1"><tspan
         x="808.87695"
         y="94.124358"
         id="tspan5"><tspan
           style="font-weight:bold;font-family:'Helvetica Neue';-inkscape-font-specification:'Helvetica Neue Bold'"
           id="tspan1">S</tspan></tspan></text><path
       sodipodi:type="spiral"
       style="fill:none;fill-rule:evenodd;stroke:#000000;stroke-width:23.3197;stroke-dasharray:none"
       id="path5"
       sodipodi:cx="180.74469"
       sodipodi:cy="204.52689"
       sodipodi:expansion="1"
       sodipodi:revolution="3"
       sodipodi:radius="203.94534"
       sodipodi:argument="-18.297136"
       sodipodi:t0="0"
       d="m 180.74469,204.52689 c 8.70453,5.36581 -2.9385,14.38083 -8.91833,14.46749 -16.20498,0.23486 -23.35842,-18.89565 -20.01666,-32.30416 5.97761,-23.98468 34.07011,-33.29431 55.68999,-25.56583 31.72805,11.34186 43.46138,49.42756 31.11499,79.07583 -16.4558,39.51649 -64.84695,53.72317 -102.46166,36.66415 C 88.818743,255.39734 72.119855,196.56923 93.939706,151.01688 120.36647,95.846881 189.69911,76.64594 243.17303,103.25441 c 63.01716,31.35715 84.72613,111.23366 53.31164,172.61915 -36.26928,70.87197 -126.71461,95.09295 -196.00499,58.8608 C 21.74755,293.56509 -4.9882194,192.53413 36.069717,115.34355 82.130517,28.747379 193.75901,-0.50521801 278.84636,45.384416 373.30945,96.330607 405.08042,218.56536 354.35466,311.54689"
       transform="matrix(0.26458333,0,0,0.26458333,53.485173,55.973304)" /></g></svg>
